# xmcd
#
# Track frame offsets: 
#        150
#        12366
#        27802
#        38506
#        53734
#        67273
#        81640
#        97303
#        114157
#        128699
#        145698
#        159065
#        174747
#        188376
#        200555
#        215750
#        229345
#        243639
#        256756
#        273245
#        287061
#        304865
#
# Disc length: 4283 seconds
#
# Revision: 1
# Processed by: cddbd v1.5.2PL0 Copyright (c) Steve Scherf et al.
# Submitted via: ExactAudioCopyFreeDBPlugin 1.0
#
DISCID=3810b916
DTITLE=C.S. Lewis - Mere Christianity
DYEAR=2006
DGENRE=Audio Book
TTITLE0=Book 4 Chapter 9a
TTITLE1=Book 4 Chapter 9b
TTITLE2=Book 4 Chapter 9c
TTITLE3=Book 4 Chapter 10a
TTITLE4=Book 4 Chapter 10b
TTITLE5=Book 4 Chapter 10c
TTITLE6=Book 4 Chapter 10d
TTITLE7=Book 4 Chapter 10e
TTITLE8=Book 4 Chapter 11a
TTITLE9=Book 4 Chapter 11b
TTITLE10=Book 4 Chapter 11c
TTITLE11=Book 4 Chapter 11d
TTITLE12=Book 4 Chapter 11e_End Credits
TTITLE13=TAOM Introduction_Chapter 1a
TTITLE14=TAOM Chapter 1b
TTITLE15=TAOM Chapter 1c
TTITLE16=TAOM Chapter 1d
TTITLE17=TAOM Chapter 1e
TTITLE18=TAOM Chapter 1f
TTITLE19=TAOM Chapter 1g
TTITLE20=TAOM Chapter 1h
TTITLE21=TAOM Chapter 1i
EXTD=
EXTT0=
EXTT1=
EXTT2=
EXTT3=
EXTT4=
EXTT5=
EXTT6=
EXTT7=
EXTT8=
EXTT9=
EXTT10=
EXTT11=
EXTT12=
EXTT13=
EXTT14=
EXTT15=
EXTT16=
EXTT17=
EXTT18=
EXTT19=
EXTT20=
EXTT21=
PLAYORDER=
